<svg width="60" height="60" viewBox="0 0 60 60" fill="none" xmlns="http://www.w3.org/2000/svg">
  <filter id="shadow" x="0" y="0" width="100%" height="100%">
    <feDropShadow dx="0" dy="2" stdDeviation="3" flood-opacity="0.3"/>
  </filter>
  <path d="M30 52C30 52 5 38 5 21C5 11 15 8 21 16C23 18.5 28 24 30 24C32 24 37 18.5 39 16C45 8 55 11 55 21C55 38 30 52 30 52Z" fill="white" stroke="white" stroke-width="8" stroke-linejoin="round"/>
  <path d="M30 52C30 52 5 38 5 21C5 11 15 8 21 16C23 18.5 28 24 30 24C32 24 37 18.5 39 16C45 8 55 11 55 21C55 38 30 52 30 52Z" fill="#EC4899" filter="url(#shadow)"/>
  <circle cx="15" cy="18" r="2" fill="white" opacity="0.6"/>
  <circle cx="45" cy="25" r="1.5" fill="white" opacity="0.6"/>
  <path d="M48 10L50 14L54 10L50 6L48 10Z" fill="white" opacity="0.8"/>
</svg>
