<svg width="100" height="100" viewBox="0 0 100 100" xmlns="http://www.w3.org/2000/svg">
  <defs>
    <linearGradient id="heartGrad" x1="0%" y1="0%" x2="100%" y2="100%">
      <stop offset="0%" style="stop-color:#ff9a9e;stop-opacity:1" />
      <stop offset="50%" style="stop-color:#fad0c4;stop-opacity:1" />
      <stop offset="100%" style="stop-color:#fbc2eb;stop-opacity:1" />
    </linearGradient>
    <filter id="bling" x="-20%" y="-20%" width="140%" height="140%">
      <feGaussianBlur in="SourceAlpha" stdDeviation="2" result="blur" />
      <feOffset in="blur" dx="2" dy="2" result="offsetBlur" />
      <feSpecularLighting in="blur" surfaceScale="5" specularConstant=".75" specularExponent="20" lighting-color="#ffffff" result="specOut">
        <fePointLight x="-50" y="-100" z="200" />
      </feSpecularLighting>
      <feComposite in="specOut" in2="SourceAlpha" operator="in" result="specOut" />
      <feComposite in="SourceGraphic" in2="specOut" operator="arithmetic" k1="0" k2="1" k3="1" k4="0" result="litGraphic" />
    </filter>
  </defs>
  <g>
    <animateTransform attributeName="transform" type="scale" values="1;1.08;1" dur="1.2s" repeatCount="indefinite" additive="sum" transform-origin="center" />
    <path d="M50 88.27L42.75 81.68C17.15 58.46 0.33 43.19 0.33 24.5C0.33 9.3 12.3 0 27.5 0C36.1 0 44.3 4.01 50 10.32C55.7 4.01 63.9 0 72.5 0C87.7 0 99.67 9.3 99.67 24.5C99.67 43.19 82.85 58.46 57.25 81.68L50 88.27Z" fill="url(#heartGrad)" filter="url(#bling)" />
  </g>
  <circle cx="25" cy="20" r="2" fill="white">
     <animate attributeName="opacity" values="0.4;1;0.4" dur="2s" repeatCount="indefinite" />
  </circle>
  <circle cx="30" cy="15" r="1.5" fill="white">
     <animate attributeName="opacity" values="1;0.4;1" dur="2s" repeatCount="indefinite" />
  </circle>
</svg>
